<svg width="10" height="15" viewBox="0 0 7 13" fill="none" xmlns="http://www.w3.org/2000/svg">
<path stroke="white" stroke-width="1" stroke-linecap="round" stroke-linejoin="round" d="M5.29306 11.3738C5.68358 11.7643 6.31674 11.7643 6.70727 11.3738C7.09779 10.9833 7.09779 10.3501 6.70727 9.95957L5.29306 11.3738ZM1.3335 6.00001L0.626389 5.2929C0.235865 5.68343 0.235865 6.31659 0.626389 6.70712L1.3335 6.00001ZM6.70727 2.04045C7.09779 1.64993 7.09779 1.01676 6.70727 0.626237C6.31674 0.235712 5.68358 0.235712 5.29306 0.626237L6.70727 2.04045ZM6.70727 9.95957L2.0406 5.2929L0.626389 6.70712L5.29306 11.3738L6.70727 9.95957ZM2.0406 6.70712L6.70727 2.04045L5.29306 0.626237L0.626389 5.2929L2.0406 6.70712Z" fill="white" fill-opacity="1"/>
</svg>
